<svg width="40" height="40" viewBox="0 0 40 40" fill="none" xmlns="http://www.w3.org/2000/svg">
<rect width="40" height="40" rx="4" fill="#111827"/>
<path d="M14.4011 9.97543C12.0845 9.97403 9.83908 10.7901 8.0475 12.2845C6.25593 13.779 5.02906 15.8594 4.57596 18.1712C4.12286 20.4829 4.47158 22.8831 5.56269 24.9625C6.65379 27.042 8.41977 28.6721 10.5597 29.5751C12.6996 30.4781 15.081 30.5981 17.2981 29.9147C19.5152 29.2312 21.4308 27.7866 22.7185 25.827C24.0062 23.8674 24.5862 21.5141 24.3598 19.1681C24.1334 16.8221 23.1145 14.6285 21.4768 12.9613C20.5481 12.0149 19.4451 11.264 18.231 10.7517C17.0169 10.2394 15.7155 9.9756 14.4011 9.97543ZM14.4011 25.4311C13.2055 25.4316 12.0467 25.0101 11.1223 24.2387C10.1978 23.4672 9.56478 22.3934 9.33115 21.2002C9.09753 20.0071 9.27771 18.7684 9.84101 17.6953C10.4043 16.6222 11.3158 15.781 12.4203 15.3151C13.5248 14.8493 14.7539 14.7875 15.8981 15.1404C17.0423 15.4933 18.0308 16.239 18.6953 17.2504C19.3597 18.2618 19.6589 19.4764 19.542 20.6872C19.425 21.898 18.899 23.03 18.0538 23.8904C17.5745 24.3792 17.0052 24.7669 16.3784 25.0313C15.7516 25.2957 15.0796 25.4316 14.4011 25.4311Z" fill="#C2A6F1"/>
<path d="M14.4011 9.97543C12.0845 9.97403 9.83908 10.7901 8.0475 12.2845C6.25593 13.779 5.02906 15.8594 4.57596 18.1712C4.12286 20.4829 4.47158 22.8831 5.56269 24.9625C6.65379 27.042 8.41977 28.6721 10.5597 29.5751C12.6996 30.4781 15.081 30.5981 17.2981 29.9147C19.5152 29.2312 21.4308 27.7866 22.7185 25.827C24.0062 23.8674 24.5862 21.5141 24.3598 19.1681C24.1334 16.8221 23.1145 14.6285 21.4768 12.9613C20.5481 12.0149 19.4451 11.264 18.231 10.7517C17.0169 10.2394 15.7155 9.9756 14.4011 9.97543ZM14.4011 25.4311C13.2055 25.4316 12.0467 25.0101 11.1223 24.2387C10.1978 23.4672 9.56478 22.3934 9.33115 21.2002C9.09753 20.0071 9.27771 18.7684 9.84101 17.6953C10.4043 16.6222 11.3158 15.781 12.4203 15.3151C13.5248 14.8493 14.7539 14.7875 15.8981 15.1404C17.0423 15.4933 18.0308 16.239 18.6953 17.2504C19.3597 18.2618 19.6589 19.4764 19.542 20.6872C19.425 21.898 18.899 23.03 18.0538 23.8904C17.5745 24.3792 17.0052 24.7669 16.3784 25.0313C15.7516 25.2957 15.0796 25.4316 14.4011 25.4311Z" fill="url(#paint0_radial_1_1606)"/>
<path d="M14.4011 9.97543C12.0845 9.97403 9.83908 10.7901 8.0475 12.2845C6.25593 13.779 5.02906 15.8594 4.57596 18.1712C4.12286 20.4829 4.47158 22.8831 5.56269 24.9625C6.65379 27.042 8.41977 28.6721 10.5597 29.5751C12.6996 30.4781 15.081 30.5981 17.2981 29.9147C19.5152 29.2312 21.4308 27.7866 22.7185 25.827C24.0062 23.8674 24.5862 21.5141 24.3598 19.1681C24.1334 16.8221 23.1145 14.6285 21.4768 12.9613C20.5481 12.0149 19.4451 11.264 18.231 10.7517C17.0169 10.2394 15.7155 9.9756 14.4011 9.97543ZM14.4011 25.4311C13.2055 25.4316 12.0467 25.0101 11.1223 24.2387C10.1978 23.4672 9.56478 22.3934 9.33115 21.2002C9.09753 20.0071 9.27771 18.7684 9.84101 17.6953C10.4043 16.6222 11.3158 15.781 12.4203 15.3151C13.5248 14.8493 14.7539 14.7875 15.8981 15.1404C17.0423 15.4933 18.0308 16.239 18.6953 17.2504C19.3597 18.2618 19.6589 19.4764 19.542 20.6872C19.425 21.898 18.899 23.03 18.0538 23.8904C17.5745 24.3792 17.0052 24.7669 16.3784 25.0313C15.7516 25.2957 15.0796 25.4316 14.4011 25.4311Z" fill="url(#paint1_linear_1_1606)"/>
<path d="M14.4011 9.97543C12.0845 9.97403 9.83908 10.7901 8.0475 12.2845C6.25593 13.779 5.02906 15.8594 4.57596 18.1712C4.12286 20.4829 4.47158 22.8831 5.56269 24.9625C6.65379 27.042 8.41977 28.6721 10.5597 29.5751C12.6996 30.4781 15.081 30.5981 17.2981 29.9147C19.5152 29.2312 21.4308 27.7866 22.7185 25.827C24.0062 23.8674 24.5862 21.5141 24.3598 19.1681C24.1334 16.8221 23.1145 14.6285 21.4768 12.9613C20.5481 12.0149 19.4451 11.264 18.231 10.7517C17.0169 10.2394 15.7155 9.9756 14.4011 9.97543ZM14.4011 25.4311C13.2055 25.4316 12.0467 25.0101 11.1223 24.2387C10.1978 23.4672 9.56478 22.3934 9.33115 21.2002C9.09753 20.0071 9.27771 18.7684 9.84101 17.6953C10.4043 16.6222 11.3158 15.781 12.4203 15.3151C13.5248 14.8493 14.7539 14.7875 15.8981 15.1404C17.0423 15.4933 18.0308 16.239 18.6953 17.2504C19.3597 18.2618 19.6589 19.4764 19.542 20.6872C19.425 21.898 18.899 23.03 18.0538 23.8904C17.5745 24.3792 17.0052 24.7669 16.3784 25.0313C15.7516 25.2957 15.0796 25.4316 14.4011 25.4311Z" fill="url(#paint2_linear_1_1606)"/>
<path d="M14.4011 9.97543C12.0845 9.97403 9.83908 10.7901 8.0475 12.2845C6.25593 13.779 5.02906 15.8594 4.57596 18.1712C4.12286 20.4829 4.47158 22.8831 5.56269 24.9625C6.65379 27.042 8.41977 28.6721 10.5597 29.5751C12.6996 30.4781 15.081 30.5981 17.2981 29.9147C19.5152 29.2312 21.4308 27.7866 22.7185 25.827C24.0062 23.8674 24.5862 21.5141 24.3598 19.1681C24.1334 16.8221 23.1145 14.6285 21.4768 12.9613C20.5481 12.0149 19.4451 11.264 18.231 10.7517C17.0169 10.2394 15.7155 9.9756 14.4011 9.97543ZM14.4011 25.4311C13.2055 25.4316 12.0467 25.0101 11.1223 24.2387C10.1978 23.4672 9.56478 22.3934 9.33115 21.2002C9.09753 20.0071 9.27771 18.7684 9.84101 17.6953C10.4043 16.6222 11.3158 15.781 12.4203 15.3151C13.5248 14.8493 14.7539 14.7875 15.8981 15.1404C17.0423 15.4933 18.0308 16.239 18.6953 17.2504C19.3597 18.2618 19.6589 19.4764 19.542 20.6872C19.425 21.898 18.899 23.03 18.0538 23.8904C17.5745 24.3792 17.0052 24.7669 16.3784 25.0313C15.7516 25.2957 15.0796 25.4316 14.4011 25.4311Z" fill="url(#paint3_linear_1_1606)"/>
<path d="M14.4011 9.97543C12.0845 9.97403 9.83908 10.7901 8.0475 12.2845C6.25593 13.779 5.02906 15.8594 4.57596 18.1712C4.12286 20.4829 4.47158 22.8831 5.56269 24.9625C6.65379 27.042 8.41977 28.6721 10.5597 29.5751C12.6996 30.4781 15.081 30.5981 17.2981 29.9147C19.5152 29.2312 21.4308 27.7866 22.7185 25.827C24.0062 23.8674 24.5862 21.5141 24.3598 19.1681C24.1334 16.8221 23.1145 14.6285 21.4768 12.9613C20.5481 12.0149 19.4451 11.264 18.231 10.7517C17.0169 10.2394 15.7155 9.9756 14.4011 9.97543ZM14.4011 25.4311C13.2055 25.4316 12.0467 25.0101 11.1223 24.2387C10.1978 23.4672 9.56478 22.3934 9.33115 21.2002C9.09753 20.0071 9.27771 18.7684 9.84101 17.6953C10.4043 16.6222 11.3158 15.781 12.4203 15.3151C13.5248 14.8493 14.7539 14.7875 15.8981 15.1404C17.0423 15.4933 18.0308 16.239 18.6953 17.2504C19.3597 18.2618 19.6589 19.4764 19.542 20.6872C19.425 21.898 18.899 23.03 18.0538 23.8904C17.5745 24.3792 17.0052 24.7669 16.3784 25.0313C15.7516 25.2957 15.0796 25.4316 14.4011 25.4311Z" fill="url(#paint4_radial_1_1606)"/>
<path d="M14.4011 9.97543C12.0845 9.97403 9.83908 10.7901 8.0475 12.2845C6.25593 13.779 5.02906 15.8594 4.57596 18.1712C4.12286 20.4829 4.47158 22.8831 5.56269 24.9625C6.65379 27.042 8.41977 28.6721 10.5597 29.5751C12.6996 30.4781 15.081 30.5981 17.2981 29.9147C19.5152 29.2312 21.4308 27.7866 22.7185 25.827C24.0062 23.8674 24.5862 21.5141 24.3598 19.1681C24.1334 16.8221 23.1145 14.6285 21.4768 12.9613C20.5481 12.0149 19.4451 11.264 18.231 10.7517C17.0169 10.2394 15.7155 9.9756 14.4011 9.97543ZM14.4011 25.4311C13.2055 25.4316 12.0467 25.0101 11.1223 24.2387C10.1978 23.4672 9.56478 22.3934 9.33115 21.2002C9.09753 20.0071 9.27771 18.7684 9.84101 17.6953C10.4043 16.6222 11.3158 15.781 12.4203 15.3151C13.5248 14.8493 14.7539 14.7875 15.8981 15.1404C17.0423 15.4933 18.0308 16.239 18.6953 17.2504C19.3597 18.2618 19.6589 19.4764 19.542 20.6872C19.425 21.898 18.899 23.03 18.0538 23.8904C17.5745 24.3792 17.0052 24.7669 16.3784 25.0313C15.7516 25.2957 15.0796 25.4316 14.4011 25.4311Z" fill="url(#paint5_radial_1_1606)"/>
<path d="M14.4011 9.97543C12.0845 9.97403 9.83908 10.7901 8.0475 12.2845C6.25593 13.779 5.02906 15.8594 4.57596 18.1712C4.12286 20.4829 4.47158 22.8831 5.56269 24.9625C6.65379 27.042 8.41977 28.6721 10.5597 29.5751C12.6996 30.4781 15.081 30.5981 17.2981 29.9147C19.5152 29.2312 21.4308 27.7866 22.7185 25.827C24.0062 23.8674 24.5862 21.5141 24.3598 19.1681C24.1334 16.8221 23.1145 14.6285 21.4768 12.9613C20.5481 12.0149 19.4451 11.264 18.231 10.7517C17.0169 10.2394 15.7155 9.9756 14.4011 9.97543ZM14.4011 25.4311C13.2055 25.4316 12.0467 25.0101 11.1223 24.2387C10.1978 23.4672 9.56478 22.3934 9.33115 21.2002C9.09753 20.0071 9.27771 18.7684 9.84101 17.6953C10.4043 16.6222 11.3158 15.781 12.4203 15.3151C13.5248 14.8493 14.7539 14.7875 15.8981 15.1404C17.0423 15.4933 18.0308 16.239 18.6953 17.2504C19.3597 18.2618 19.6589 19.4764 19.542 20.6872C19.425 21.898 18.899 23.03 18.0538 23.8904C17.5745 24.3792 17.0052 24.7669 16.3784 25.0313C15.7516 25.2957 15.0796 25.4316 14.4011 25.4311Z" fill="url(#paint6_linear_1_1606)"/>
<path d="M35.2804 9.97543L30.6059 20.1966H25.7705L30.4372 9.97543H35.2804Z" fill="white"/>
<path d="M35.4501 20.1966L30.7834 30.4178H25.9402L30.606 20.1966H35.4501Z" fill="white"/>
<defs>
<radialGradient id="paint0_radial_1_1606" cx="0" cy="0" r="1" gradientUnits="userSpaceOnUse" gradientTransform="translate(22.5554 18.1568) rotate(105.445) scale(20.585 9.26609)">
<stop stop-color="#FFFECB"/>
<stop offset="0.344597" stop-color="#FEE4BF"/>
<stop offset="0.695017" stop-color="#F0BDD0"/>
<stop offset="1" stop-color="#FF8126" stop-opacity="0"/>
</radialGradient>
<linearGradient id="paint1_linear_1_1606" x1="15.7594" y1="8.59913" x2="20.5853" y2="12.376" gradientUnits="userSpaceOnUse">
<stop stop-color="#C0A9F0" stop-opacity="0"/>
<stop offset="0.456382" stop-color="#C0A9F0"/>
<stop offset="1" stop-color="#C0A9F0" stop-opacity="0"/>
</linearGradient>
<linearGradient id="paint2_linear_1_1606" x1="25.8345" y1="5.19661" x2="20.1333" y2="12.7837" gradientUnits="userSpaceOnUse">
<stop stop-color="#C0A9F0" stop-opacity="0"/>
<stop offset="0.461891" stop-color="#C0A9F0"/>
<stop offset="1" stop-color="#C0A9F0" stop-opacity="0"/>
</linearGradient>
<linearGradient id="paint3_linear_1_1606" x1="9.47647" y1="13.1868" x2="15.0567" y2="18.5931" gradientUnits="userSpaceOnUse">
<stop stop-color="#3FFFB5" stop-opacity="0.54"/>
<stop offset="1" stop-color="#CDF9E8" stop-opacity="0"/>
</linearGradient>
<radialGradient id="paint4_radial_1_1606" cx="0" cy="0" r="1" gradientUnits="userSpaceOnUse" gradientTransform="translate(13.5065 19.0743) rotate(-116.953) scale(6.2404 12.2065)">
<stop stop-color="#CBADEB"/>
<stop offset="1" stop-color="#C2A6F1" stop-opacity="0"/>
</radialGradient>
<radialGradient id="paint5_radial_1_1606" cx="0" cy="0" r="1" gradientUnits="userSpaceOnUse" gradientTransform="translate(11.5666 30.3523) rotate(-124.631) scale(8.89753 11.7777)">
<stop stop-color="#DC8DDC"/>
<stop offset="1" stop-color="#DC8DDC" stop-opacity="0"/>
</radialGradient>
<linearGradient id="paint6_linear_1_1606" x1="4.38257" y1="9.97543" x2="8.68908" y2="12.7609" gradientUnits="userSpaceOnUse">
<stop stop-color="#FFB762"/>
<stop offset="1" stop-color="#EBF3D0" stop-opacity="0"/>
</linearGradient>
</defs>
</svg>
